<?xml version="1.0" encoding="UTF-8" standalone="no"?>
<!-- Created with Inkscape (http://www.inkscape.org/) -->

<svg
   width="100mm"
   height="100mm"
   viewBox="0 0 100 100"
   version="1.1"
   id="svg5"
   inkscape:export-filename="C:\Users\nickd\sample-grid.png"
   inkscape:export-xdpi="65.024002"
   inkscape:export-ydpi="65.024002"
   inkscape:version="1.1.2 (b8e25be833, 2022-02-05)"
   sodipodi:docname="sample-grid.svg"
   xmlns:inkscape="http://www.inkscape.org/namespaces/inkscape"
   xmlns:sodipodi="http://sodipodi.sourceforge.net/DTD/sodipodi-0.dtd"
   xmlns="http://www.w3.org/2000/svg"
   xmlns:svg="http://www.w3.org/2000/svg">
  <sodipodi:namedview
     id="namedview7"
     pagecolor="#ffffff"
     bordercolor="#666666"
     borderopacity="1.0"
     inkscape:pageshadow="2"
     inkscape:pageopacity="0.0"
     inkscape:pagecheckerboard="0"
     inkscape:document-units="mm"
     showgrid="false"
     width="100mm"
     inkscape:zoom="1.466344"
     inkscape:cx="268.35449"
     inkscape:cy="186.17732"
     inkscape:window-width="1920"
     inkscape:window-height="1009"
     inkscape:window-x="-8"
     inkscape:window-y="-8"
     inkscape:window-maximized="1"
     inkscape:current-layer="layer1" />
  <defs
     id="defs2" />
  <g
     inkscape:label="Layer 1"
     inkscape:groupmode="layer"
     id="layer1">
    <rect
       id="rect1223"
       width="100"
       height="100"
       x="-7.6293945e-06"
       y="0"
       style="fill:#ffffff;fill-opacity:1;stroke-width:0.264583" />
    <path
       style="fill:none;stroke:#000000;stroke-width:0.264583px;stroke-linecap:butt;stroke-linejoin:miter;stroke-opacity:1"
       d="M 0,0 H 100 M -2e-6,10 H 100 M -5.0000002e-7,20 H 100 M -2.5e-6,30 H 100 M 0,40 H 100 M -2e-6,50 H 100 M -1e-6,59.999999 H 100 M -3e-6,70 H 100 M -1e-6,80 H 100 M -3e-6,90.000001 H 100 M -2e-6,99.999999 H 100"
       id="path281"
       sodipodi:nodetypes="cccccccccccccccccccccc" />
    <path
       style="fill:none;stroke:#000000;stroke-width:0.264583px;stroke-linecap:butt;stroke-linejoin:miter;stroke-opacity:1"
       d="M 100.1323,5.2916597e-8 100.13234,100 M 90.13229,5.2916597e-8 90.13233,100 M 80.13229,5.2916597e-8 80.13233,100 M 70.13229,5.2916597e-8 70.13233,100 M 60.13229,5.2916597e-8 60.13233,100 M 50.13229,5.2916597e-8 50.13233,100 M 40.13229,5.2916597e-8 40.13233,100 M 30.13229,5.2916597e-8 30.132329,100 M 20.13229,5.2916597e-8 20.132329,100 M 10.132289,5.2916597e-8 10.132328,100 M 0.1322915,5.2916597e-8 0.1323315,100"
       id="path281-3"
       sodipodi:nodetypes="cccccccccccccccccccccc" />
  </g>
</svg>
